Coordinates
version=1
nRows=22
nColumns=26
inDegrees=yes

Units are S.I. units (second, meters, Newtons, ...)
If the header above contains a line with 'inDegrees', this indicates whether rotational values are in degrees (yes) or radians (no).

endheader
time	pelvis_tilt	pelvis_list	pelvis_rotation	pelvis_tx	pelvis_ty	pelvis_tz	hip_flexion_r	hip_adduction_r	hip_rotation_r	knee_angle_r	knee_angle_r_beta	hip_flexion_l	hip_adduction_l	hip_rotation_l	knee_angle_l	knee_angle_l_beta	lumbar_extension	lumbar_bending	lumbar_rotation	ankle_angle_r	subtalar_angle_r	mtp_angle_r	ankle_angle_l	subtalar_angle_l	mtp_angle_l
      0.11000000	     -8.30518123	      7.46202242	     10.22380755	     -0.61060010	      0.85457252	     -0.27380860	     29.68437408	    -13.39767784	    -20.76738124	      0.99704343	      0.01740169	     -2.14409128	     10.36934203	     -4.75086505	     14.82427081	      0.25873233	     -3.67575999	    -11.13476223	     -9.80423781	      0.19812790	      3.66368396	      0.00000000	     18.97014452	      3.90189340	      0.00000000
      0.12000000	     -8.48915798	      7.22086597	     10.48733038	     -0.60031194	      0.85433570	     -0.27301144	     29.34657059	    -13.16426772	    -20.25116726	      0.98617085	      0.01721193	     -2.25479900	      9.81284773	     -4.56397486	     15.52858760	      0.27102498	     -3.37531230	    -10.87559613	     -9.83656543	     -0.60678611	      3.47344789	      0.00000000	     18.57565384	      4.10428142	      0.00000000
      0.13000000	     -8.57277258	      7.04780884	     10.61625185	     -0.58974705	      0.85442468	     -0.27217354	     28.92436244	    -12.98712973	    -19.72583340	      1.20188984	      0.02097693	     -2.55812388	      9.33722701	     -4.22056735	     16.06194191	      0.28033377	     -3.15703463	    -10.65079202	     -9.73719320	     -1.24237966	      3.61977028	      0.00000000	     17.98090729	      4.30838923	      0.00000000
      0.14000000	     -8.60011917	      6.73857625	     10.71368656	     -0.57906439	      0.85480992	     -0.27109882	     28.36830259	    -12.63747728	    -19.23996805	      1.33900465	      0.02337004	     -2.74774872	      8.66478228	     -4.01276774	     16.84300202	      0.29396584	     -2.96992188	    -10.25460057	     -9.62456947	     -2.26828245	      3.44051930	      0.00000000	     17.20374764	      4.41973467	      0.00000000
      0.15000000	     -8.79985380	      6.03087859	     10.70418468	     -0.56853538	      0.85498616	     -0.26921473	     27.89820842	    -11.69690380	    -17.78936367	      1.00951872	      0.01761943	     -2.32674951	      7.45699898	     -4.43044161	     18.28021922	      0.31905001	     -2.48859033	     -9.51521199	     -9.45969069	     -4.87140696	      0.44062314	      0.00000000	     16.96238904	      4.84808724	      0.00000000
      0.16000000	     -8.73991899	      5.45805640	     10.67671304	     -0.55766467	      0.85579309	     -0.26779022	     27.22293087	    -11.00414519	    -17.36537976	      1.11085755	      0.01938812	     -2.34669487	      6.45353384	     -4.36374322	     19.38442700	      0.33832207	     -2.30778245	     -8.79245480	     -9.30460109	     -5.97595002	     -0.26563083	      0.00000000	     16.03194515	      4.67980680	      0.00000000
      0.17000000	     -8.70536444	      4.83074357	     10.51538234	     -0.54684349	      0.85665962	     -0.26618438	     26.60986894	    -10.18580999	    -16.71956644	      1.17371182	      0.02048514	     -2.17281797	      5.38069926	     -4.47895399	     20.75284259	      0.36220543	     -2.07750888	     -7.91765939	     -9.05112698	     -7.13194013	     -1.51501383	      0.00000000	     15.04344217	      4.62350226	      0.00000000
      0.18000000	     -8.63548456	      4.19701149	     10.28472189	     -0.53585359	      0.85774057	     -0.26417702	     25.98783753	     -9.31537424	    -16.27126438	      1.36488944	      0.02382181	     -1.99292634	      4.28310640	     -4.57235998	     22.11706106	      0.38601554	     -1.88975818	     -7.18269225	     -8.67388203	     -7.53053312	     -1.96375255	      0.00000000	     13.69496492	      4.35338970	      0.00000000
      0.19000000	     -8.54581011	      3.47866967	      9.97242552	     -0.52498675	      0.85888221	     -0.26207274	     25.37710646	     -8.29628772	    -15.87261602	      1.50969704	      0.02634918	     -1.63622390	      3.09096493	     -4.76215636	     23.77837161	      0.41501088	     -1.73238500	     -6.27777092	     -8.30343357	     -7.81662223	     -2.60270731	      0.00000000	     12.19240704	      3.96656972	      0.00000000
      0.20000000	     -8.43562378	      2.67787735	      9.65763849	     -0.51409667	      0.86009605	     -0.25981390	     24.76933630	     -7.17910615	    -15.52731467	      1.73466103	      0.03027555	     -1.14288582	      1.77031546	     -5.12681420	     25.63299582	      0.44738017	     -1.56530086	     -5.27516673	     -7.86509128	     -7.77111460	     -3.03743463	      0.00000000	     10.42968410	      3.33305116	      0.00000000
      0.21000000	     -8.28880835	      1.89040483	      9.27492591	     -0.50321734	      0.86134641	     -0.25742640	     24.15786997	     -6.02224440	    -15.31233140	      1.99616842	      0.03483971	     -0.56547784	      0.44399141	     -5.61251185	     27.65395579	      0.48265258	     -1.45784706	     -4.28717752	     -7.36749795	     -7.36328994	     -3.27388954	      0.00000000	      8.33830683	      2.52052742	      0.00000000
      0.22000000	     -8.16439572	      1.02954581	      8.85654049	     -0.49257867	      0.86248216	     -0.25486803	     23.60474376	     -4.74631281	    -15.19257942	      2.23063211	      0.03893187	      0.24774107	     -0.96875858	     -6.12242197	     29.96532551	      0.52299359	     -1.37584787	     -3.22885489	     -6.90785526	     -6.92842978	     -3.47763582	      0.00000000	      5.98406245	      1.38196108	      0.00000000
      0.23000000	     -8.04575471	      0.19234467	      8.45928957	     -0.48202611	      0.86353416	     -0.25232825	     23.06784928	     -3.50003275	    -15.17814741	      2.50613401	      0.04374029	      1.21196073	     -2.37763669	     -6.70325425	     32.44865751	      0.56633591	     -1.30506209	     -2.20925886	     -6.42575145	     -6.29694343	     -3.52287373	      0.00000000	      3.26039853	     -0.07764800	      0.00000000
      0.24000000	     -8.04879396	     -0.57654222	      8.14255973	     -0.47176717	      0.86433019	     -0.25000492	     22.68320774	     -2.38644142	    -15.33205637	      2.82001747	      0.04921859	      2.49595021	     -3.66221293	     -7.15565420	     35.12401314	      0.61302968	     -1.14269182	     -1.26434722	     -6.03792046	     -5.59822911	     -3.47457128	      0.00000000	     -0.00931940	     -2.17341043	      0.00000000
      0.25000000	     -7.99848999	     -1.28229583	      7.80210974	     -0.46161382	      0.86509205	     -0.24765738	     22.24703572	     -1.31669586	    -15.56428319	      3.16349878	      0.05521347	      3.79704700	     -4.88394212	     -7.66856917	     37.80082756	      0.65974890	     -1.06816210	     -0.41339095	     -5.64090951	     -4.74259742	     -3.24325516	      0.00000000	     -3.71242026	     -4.73718720	      0.00000000
      0.26000000	     -7.88393350	     -1.95864908	      7.47741031	     -0.45159451	      0.86582678	     -0.24541446	     21.71024860	     -0.27740419	    -15.79134494	      3.47329032	      0.06062035	      5.12309075	     -6.08693295	     -8.18691774	     40.52202665	      0.70724278	     -1.10412756	      0.43322476	     -5.22123719	     -3.83381332	     -2.89377112	      0.00000000	     -7.70834906	     -7.62633273	      0.00000000
      0.27000000	     -7.75663593	     -2.61602892	      7.19759937	     -0.44170008	      0.86643858	     -0.24324558	     21.09322643	      0.75204269	    -16.04391081	      3.65251575	      0.06374843	      6.52717166	     -7.29524925	     -8.73612650	     43.26708047	      0.75515301	     -1.18811181	      1.23434613	     -4.82492156	     -2.92010230	     -2.54355174	      0.00000000	    -11.78660978	    -10.71570770	      0.00000000
      0.28000000	     -7.59622450	     -3.23800426	      6.96042068	     -0.43196104	      0.86701071	     -0.24123417	     20.38389788	      1.73637819	    -16.22966849	      3.73820375	      0.06524396	      7.96616232	     -8.44851650	     -9.17910410	     45.99932742	      0.80283972	     -1.32588718	      2.00324518	     -4.45974927	     -2.07295340	     -2.20215104	      0.00000000	    -15.72156337	    -13.82027945	      0.00000000
      0.29000000	     -7.39159294	     -3.86322333	      6.78742133	     -0.42239746	      0.86751984	     -0.23931144	     19.56284256	      2.72803761	    -16.33897825	      3.70348872	      0.06463807	      9.44580235	     -9.62217014	     -9.49774063	     48.76597859	      0.85112689	     -1.53799897	      2.76917537	     -4.15133758	     -1.28342597	     -1.96872969	      0.00000000	    -18.89548552	    -16.29461313	      0.00000000
      0.30000000	     -7.02773230	     -4.44358941	      6.58406961	     -0.41282700	      0.86817257	     -0.23735849	     18.50417978	      3.72468561	    -16.23737840	      3.59844246	      0.06280467	     10.74068974	    -10.79639940	     -9.79712902	     51.47891058	      0.89847648	     -1.95593572	      3.47142001	     -3.67206879	     -0.34020896	     -1.72053982	      0.00000000	    -20.70159473	    -17.64361750	      0.00000000
      0.31000000	     -6.78412994	     -4.96812952	      6.51648521	     -0.40353411	      0.86866327	     -0.23583794	     17.53646225	      4.58612173	    -16.22480360	      3.38382760	      0.05905893	     12.27765912	    -11.78748104	     -9.81587927	     54.11929705	      0.94455992	     -2.25129201	      4.12932508	     -3.49787901	      0.26853421	     -1.53870188	      0.00000000	    -21.70883440	    -18.61622635	      0.00000000
      0.32000000	     -6.56715027	     -5.49036318	      6.57281902	     -0.39448446	      0.86905821	     -0.23456111	     16.57237609	      5.41249839	    -16.13911672	      3.10592617	      0.05420864	     13.96212311	    -12.68739509	     -9.59748216	     56.72674107	      0.99006841	     -2.51539744	      4.76344836	     -3.40557803	      0.74324475	     -1.61952765	      0.00000000	    -21.24940094	    -18.95681082	      0.00000000
